<mxfile host="app.diagrams.net" modified="2024-03-20T08:24:43.474Z" agent="Mozilla/5.0 (Macintosh; Intel Mac OS X 10_15_7) AppleWebKit/537.36 (KHTML, like Gecko) Chrome/122.0.0.0 Safari/537.36" etag="08exP1l1EhNO10mfhFfI" version="24.0.7" type="github">
  <diagram name="第 1 页" id="7Ke28cNyJoo9YZL6jPCr">
    <mxGraphModel dx="1434" dy="786" grid="1" gridSize="10" guides="1" tooltips="1" connect="1" arrows="1" fold="1" page="1" pageScale="1" pageWidth="827" pageHeight="1169" math="0" shadow="0">
      <root>
        <mxCell id="0" />
        <mxCell id="1" parent="0" />
        <mxCell id="Qgr-ngsV0st4P8M9gAP0-8" value="" style="rounded=0;whiteSpace=wrap;html=1;" vertex="1" parent="1">
          <mxGeometry x="150" y="380" width="440" height="100" as="geometry" />
        </mxCell>
        <mxCell id="Qgr-ngsV0st4P8M9gAP0-7" value="" style="edgeStyle=orthogonalEdgeStyle;rounded=0;orthogonalLoop=1;jettySize=auto;html=1;" edge="1" parent="1" source="Qgr-ngsV0st4P8M9gAP0-1" target="Qgr-ngsV0st4P8M9gAP0-6">
          <mxGeometry relative="1" as="geometry" />
        </mxCell>
        <mxCell id="Qgr-ngsV0st4P8M9gAP0-1" value="语言切换" style="rounded=0;whiteSpace=wrap;html=1;" vertex="1" parent="1">
          <mxGeometry x="220" y="220" width="120" height="60" as="geometry" />
        </mxCell>
        <mxCell id="Qgr-ngsV0st4P8M9gAP0-10" value="" style="edgeStyle=orthogonalEdgeStyle;rounded=0;orthogonalLoop=1;jettySize=auto;html=1;" edge="1" parent="1" source="Qgr-ngsV0st4P8M9gAP0-2" target="Qgr-ngsV0st4P8M9gAP0-1">
          <mxGeometry relative="1" as="geometry" />
        </mxCell>
        <mxCell id="Qgr-ngsV0st4P8M9gAP0-2" value="Actor" style="shape=umlActor;verticalLabelPosition=bottom;verticalAlign=top;html=1;outlineConnect=0;" vertex="1" parent="1">
          <mxGeometry x="160" y="220" width="30" height="60" as="geometry" />
        </mxCell>
        <mxCell id="Qgr-ngsV0st4P8M9gAP0-3" value="VUE I18国际化" style="rounded=0;whiteSpace=wrap;html=1;" vertex="1" parent="1">
          <mxGeometry x="180" y="400" width="120" height="60" as="geometry" />
        </mxCell>
        <mxCell id="Qgr-ngsV0st4P8M9gAP0-4" value="element-plus 国际化" style="rounded=0;whiteSpace=wrap;html=1;" vertex="1" parent="1">
          <mxGeometry x="310" y="400" width="120" height="60" as="geometry" />
        </mxCell>
        <mxCell id="Qgr-ngsV0st4P8M9gAP0-5" value="dayjs 国际化" style="rounded=0;whiteSpace=wrap;html=1;" vertex="1" parent="1">
          <mxGeometry x="440" y="400" width="120" height="60" as="geometry" />
        </mxCell>
        <mxCell id="Qgr-ngsV0st4P8M9gAP0-6" value="页面刷新" style="rounded=0;whiteSpace=wrap;html=1;" vertex="1" parent="1">
          <mxGeometry x="470" y="220" width="120" height="60" as="geometry" />
        </mxCell>
        <mxCell id="Qgr-ngsV0st4P8M9gAP0-9" value="locel" style="text;html=1;align=center;verticalAlign=middle;whiteSpace=wrap;rounded=0;" vertex="1" parent="1">
          <mxGeometry x="370" y="220" width="60" height="30" as="geometry" />
        </mxCell>
      </root>
    </mxGraphModel>
  </diagram>
</mxfile>
